#define min_width 16
#define min_height 16
static unsigned char close_bits[] = {
   0x00, 0x00, 0x00, 0x00, 0x00, 0x00, 0x00, 0x00, 0x00, 0x00, 0x00, 0x00,
   0x30, 0x06, 0x70, 0x07, 0xE0, 0x03, 0xC0, 0x01, 0xE0, 0x03, 0x70, 0x07,
   0x30, 0x06, 0x00, 0x00, 0x00, 0x00, 0x00, 0x00 }
