#define min_width 16
#define min_height 16
static unsigned char min_bits[] = {
     0x00, 0x00, 0x00, 0x00, 0x00, 0x00, 0x00, 0x00, 0x00, 0x00, 0xc0, 0x0f,
     0xc0, 0x0f, 0x40, 0x08, 0xf0, 0x0b, 0xf0, 0x0b, 0x10, 0x0e, 0x10, 0x02,
     0x10, 0x02, 0xf0, 0x03, 0x00, 0x00, 0x00, 0x00 }
