#define min_width 16
#define min_height 16
static unsigned char min_bits[] = {
     0x00, 0x00, 0x00, 0x00, 0x00, 0x00, 0x00, 0x00, 0x00, 0x00, 0xF8, 0x1F,
     0xF8, 0x1F, 0x08, 0x10, 0x08, 0x10, 0x08, 0x10, 0x08, 0x10, 0x08, 0x10,
     0xF8, 0x1F, 0x00, 0x00, 0x00, 0x00, 0x00, 0x00 }