#define min_width 16
#define min_height 16
static unsigned char min_bits[] = {
     0x00, 0x00, 0x00, 0x00, 0x00, 0x00, 0x00, 0x00, 0x00, 0x00, 0x00, 0x00,
     0x00, 0x00, 0x00, 0x00, 0x00, 0x00, 0x00, 0x00, 0x00, 0x00, 0x00, 0x00,
     0xF8, 0x07, 0xF8, 0x07, 0x00, 0x00, 0x00, 0x00 }